<svg xmlns="http://www.w3.org/2000/svg" xmlns:xlink="http://www.w3.org/1999/xlink" width="240" zoomAndPan="magnify" viewBox="0 0 180 179.999997" height="240" preserveAspectRatio="xMidYMid meet" version="1.0"><defs><clipPath id="25adafb61d"><path d="M 12.957031 12.957031 L 166.707031 12.957031 L 166.707031 166.707031 L 12.957031 166.707031 Z M 12.957031 12.957031 " clip-rule="nonzero"/></clipPath></defs><g clip-path="url(#25adafb61d)"><path fill="#a4c639" d="M 36.019531 12.957031 L 143.644531 12.957031 C 144.398438 12.957031 145.152344 12.996094 145.90625 13.066406 C 146.65625 13.140625 147.402344 13.253906 148.144531 13.402344 C 148.886719 13.546875 149.617188 13.730469 150.339844 13.949219 C 151.0625 14.167969 151.773438 14.421875 152.46875 14.710938 C 153.167969 15 153.851562 15.324219 154.515625 15.679688 C 155.183594 16.035156 155.828125 16.425781 156.457031 16.84375 C 157.085938 17.261719 157.691406 17.714844 158.277344 18.191406 C 158.859375 18.671875 159.417969 19.179688 159.953125 19.710938 C 160.488281 20.246094 160.992188 20.804688 161.472656 21.390625 C 161.953125 21.972656 162.402344 22.578125 162.820312 23.207031 C 163.238281 23.835938 163.628906 24.480469 163.984375 25.148438 C 164.339844 25.8125 164.664062 26.496094 164.953125 27.195312 C 165.242188 27.890625 165.496094 28.601562 165.714844 29.324219 C 165.933594 30.046875 166.117188 30.78125 166.265625 31.519531 C 166.410156 32.261719 166.523438 33.007812 166.597656 33.757812 C 166.671875 34.511719 166.707031 35.265625 166.707031 36.019531 L 166.707031 143.644531 C 166.707031 144.398438 166.671875 145.152344 166.597656 145.90625 C 166.523438 146.65625 166.410156 147.402344 166.265625 148.144531 C 166.117188 148.886719 165.933594 149.617188 165.714844 150.339844 C 165.496094 151.0625 165.242188 151.773438 164.953125 152.46875 C 164.664062 153.167969 164.339844 153.851562 163.984375 154.515625 C 163.628906 155.183594 163.238281 155.828125 162.820312 156.457031 C 162.402344 157.085938 161.953125 157.691406 161.472656 158.277344 C 160.992188 158.859375 160.488281 159.417969 159.953125 159.953125 C 159.417969 160.488281 158.859375 160.992188 158.277344 161.472656 C 157.691406 161.953125 157.085938 162.402344 156.457031 162.820312 C 155.828125 163.238281 155.183594 163.628906 154.515625 163.984375 C 153.851562 164.339844 153.167969 164.664062 152.46875 164.953125 C 151.773438 165.242188 151.0625 165.496094 150.339844 165.714844 C 149.617188 165.933594 148.886719 166.117188 148.144531 166.265625 C 147.402344 166.410156 146.65625 166.523438 145.90625 166.597656 C 145.152344 166.671875 144.398438 166.707031 143.644531 166.707031 L 36.019531 166.707031 C 35.265625 166.707031 34.511719 166.671875 33.757812 166.597656 C 33.007812 166.523438 32.261719 166.410156 31.519531 166.265625 C 30.78125 166.117188 30.046875 165.933594 29.324219 165.714844 C 28.601562 165.496094 27.890625 165.242188 27.195312 164.953125 C 26.496094 164.664062 25.8125 164.339844 25.148438 163.984375 C 24.480469 163.628906 23.835938 163.238281 23.207031 162.820312 C 22.578125 162.402344 21.972656 161.953125 21.390625 161.472656 C 20.804688 160.992188 20.246094 160.488281 19.710938 159.953125 C 19.179688 159.417969 18.671875 158.859375 18.191406 158.277344 C 17.714844 157.691406 17.261719 157.085938 16.84375 156.457031 C 16.425781 155.828125 16.035156 155.183594 15.679688 154.515625 C 15.324219 153.851562 15 153.167969 14.710938 152.46875 C 14.421875 151.773438 14.167969 151.0625 13.949219 150.339844 C 13.730469 149.617188 13.546875 148.886719 13.402344 148.144531 C 13.253906 147.402344 13.140625 146.65625 13.066406 145.90625 C 12.996094 145.152344 12.957031 144.398438 12.957031 143.644531 L 12.957031 36.019531 C 12.957031 35.265625 12.996094 34.511719 13.066406 33.757812 C 13.140625 33.007812 13.253906 32.261719 13.402344 31.519531 C 13.546875 30.78125 13.730469 30.046875 13.949219 29.324219 C 14.167969 28.601562 14.421875 27.890625 14.710938 27.195312 C 15 26.496094 15.324219 25.8125 15.679688 25.148438 C 16.035156 24.480469 16.425781 23.835938 16.84375 23.207031 C 17.261719 22.578125 17.714844 21.972656 18.191406 21.390625 C 18.671875 20.804688 19.179688 20.246094 19.710938 19.710938 C 20.246094 19.179688 20.804688 18.671875 21.390625 18.191406 C 21.972656 17.714844 22.578125 17.261719 23.207031 16.84375 C 23.835938 16.425781 24.480469 16.035156 25.148438 15.679688 C 25.8125 15.324219 26.496094 15 27.195312 14.710938 C 27.890625 14.421875 28.601562 14.167969 29.324219 13.949219 C 30.046875 13.730469 30.78125 13.546875 31.519531 13.402344 C 32.261719 13.253906 33.007812 13.140625 33.757812 13.066406 C 34.511719 12.996094 35.265625 12.957031 36.019531 12.957031 Z M 36.019531 12.957031 " fill-opacity="1" fill-rule="nonzero"/></g><path stroke-linecap="round" transform="matrix(0.300293, 0, 0, 0.300293, 12.957287, 12.957286)" fill-opacity="1" fill="#000000" fill-rule="nonzero" stroke-linejoin="miter" d="M 107.004032 212.005671 L 107.004032 317.995921 M 405.995921 212.005671 L 405.995921 317.995921 M 299.004044 383.999177 L 299.004044 439.999181 M 213.995909 383.999177 L 213.995909 439.999181 " stroke="#ffffff" stroke-width="58" stroke-opacity="1" stroke-miterlimit="4"/><path stroke-linecap="round" transform="matrix(0.300293, 0, 0, 0.300293, 12.957287, 12.957286)" fill-opacity="1" fill="#000000" fill-rule="nonzero" stroke-linejoin="miter" d="M 203.004038 87.999159 L 186.002411 55.999157 M 308.994289 87.999159 L 326.997542 55.999157 " stroke="#ffffff" stroke-width="8" stroke-opacity="1" stroke-miterlimit="4"/><path fill="#ffffff" d="M 90.132812 35.78125 C 67.308594 35.78125 55.597656 53.796875 55.597656 67.308594 L 124.367188 67.308594 C 124.367188 53.195312 111.753906 36.078125 90.132812 35.78125 Z M 55.597656 70.3125 L 55.597656 119.5625 C 55.597656 124.367188 59.503906 128.269531 64.007812 128.269531 L 115.65625 128.269531 C 120.460938 128.269531 124.367188 124.367188 124.367188 119.5625 L 124.367188 70.3125 Z M 55.597656 70.3125 " fill-opacity="1" fill-rule="nonzero"/><path fill="#a4c639" d="M 76.917969 51.996094 C 76.917969 52.355469 76.851562 52.699219 76.714844 53.03125 C 76.578125 53.359375 76.382812 53.652344 76.128906 53.90625 C 75.875 54.160156 75.582031 54.355469 75.25 54.492188 C 74.921875 54.628906 74.574219 54.699219 74.21875 54.699219 C 73.859375 54.699219 73.515625 54.628906 73.183594 54.492188 C 72.851562 54.355469 72.558594 54.160156 72.304688 53.90625 C 72.050781 53.652344 71.855469 53.359375 71.71875 53.03125 C 71.582031 52.699219 71.515625 52.355469 71.515625 51.996094 C 71.515625 51.636719 71.582031 51.292969 71.71875 50.960938 C 71.855469 50.628906 72.050781 50.335938 72.304688 50.085938 C 72.558594 49.832031 72.851562 49.636719 73.183594 49.5 C 73.515625 49.359375 73.859375 49.292969 74.21875 49.292969 C 74.574219 49.292969 74.921875 49.359375 75.25 49.5 C 75.582031 49.636719 75.875 49.832031 76.128906 50.085938 C 76.382812 50.335938 76.578125 50.628906 76.714844 50.960938 C 76.851562 51.292969 76.917969 51.636719 76.917969 51.996094 Z M 76.917969 51.996094 " fill-opacity="1" fill-rule="nonzero"/><path fill="#a4c639" d="M 108.449219 51.996094 C 108.449219 52.355469 108.382812 52.699219 108.246094 53.03125 C 108.109375 53.359375 107.914062 53.652344 107.660156 53.90625 C 107.40625 54.160156 107.113281 54.355469 106.78125 54.492188 C 106.449219 54.628906 106.105469 54.699219 105.746094 54.699219 C 105.390625 54.699219 105.042969 54.628906 104.714844 54.492188 C 104.382812 54.355469 104.089844 54.160156 103.835938 53.90625 C 103.582031 53.652344 103.386719 53.359375 103.25 53.03125 C 103.113281 52.699219 103.046875 52.355469 103.046875 51.996094 C 103.046875 51.636719 103.113281 51.292969 103.25 50.960938 C 103.386719 50.628906 103.582031 50.335938 103.835938 50.085938 C 104.089844 49.832031 104.382812 49.636719 104.714844 49.5 C 105.042969 49.359375 105.390625 49.292969 105.746094 49.292969 C 106.105469 49.292969 106.449219 49.359375 106.78125 49.5 C 107.113281 49.636719 107.40625 49.832031 107.660156 50.085938 C 107.914062 50.335938 108.109375 50.628906 108.246094 50.960938 C 108.382812 51.292969 108.449219 51.636719 108.449219 51.996094 Z M 108.449219 51.996094 " fill-opacity="1" fill-rule="nonzero"/></svg>