<svg xmlns="http://www.w3.org/2000/svg" xmlns:xlink="http://www.w3.org/1999/xlink" width="240" zoomAndPan="magnify" viewBox="0 0 180 179.999997" height="240" preserveAspectRatio="xMidYMid meet" version="1.0"><defs><clipPath id="832f5417eb"><path d="M 13.183594 59 L 166.933594 59 L 166.933594 166.933594 L 13.183594 166.933594 Z M 13.183594 59 " clip-rule="nonzero"/></clipPath><clipPath id="29a1a81b59"><path d="M 13.183594 13.183594 L 166.933594 13.183594 L 166.933594 121 L 13.183594 121 Z M 13.183594 13.183594 " clip-rule="nonzero"/></clipPath><clipPath id="412beef688"><path d="M 13.183594 59 L 29 59 L 29 121 L 13.183594 121 Z M 13.183594 59 " clip-rule="nonzero"/></clipPath><clipPath id="79b497a116"><path d="M 151 59 L 166.933594 59 L 166.933594 121 L 151 121 Z M 151 59 " clip-rule="nonzero"/></clipPath><clipPath id="853be91c8a"><path d="M 82 13.183594 L 98 13.183594 L 98 75 L 82 75 Z M 82 13.183594 " clip-rule="nonzero"/></clipPath><clipPath id="c020b59209"><path d="M 82 105 L 98 105 L 98 166.933594 L 82 166.933594 Z M 82 105 " clip-rule="nonzero"/></clipPath></defs><g clip-path="url(#832f5417eb)"><path fill="#5ce1e6" d="M 90.058594 166.933594 C 88.511719 166.933594 87.09375 166.503906 85.804688 165.644531 L 16.792969 119.636719 C 16.53125 119.460938 16.28125 119.269531 16.042969 119.066406 C 15.804688 118.859375 15.578125 118.640625 15.367188 118.410156 C 15.15625 118.175781 14.960938 117.929688 14.777344 117.675781 C 14.597656 117.417969 14.433594 117.148438 14.285156 116.875 C 14.136719 116.597656 14.003906 116.3125 13.890625 116.015625 C 13.777344 115.722656 13.683594 115.425781 13.609375 115.121094 C 13.53125 114.816406 13.472656 114.507812 13.433594 114.195312 C 13.398438 113.882812 13.378906 113.570312 13.378906 113.253906 C 13.378906 112.941406 13.398438 112.628906 13.433594 112.316406 C 13.472656 112.003906 13.53125 111.695312 13.609375 111.390625 C 13.683594 111.085938 13.777344 110.785156 13.890625 110.492188 C 14.003906 110.199219 14.136719 109.914062 14.285156 109.636719 C 14.433594 109.359375 14.597656 109.09375 14.777344 108.835938 C 14.960938 108.578125 15.15625 108.335938 15.367188 108.101562 C 15.578125 107.867188 15.804688 107.648438 16.042969 107.445312 C 16.28125 107.238281 16.53125 107.050781 16.792969 106.875 L 85.804688 60.863281 C 86.4375 60.445312 87.113281 60.125 87.835938 59.90625 C 88.5625 59.6875 89.300781 59.578125 90.058594 59.578125 C 90.816406 59.578125 91.554688 59.6875 92.28125 59.90625 C 93.003906 60.125 93.679688 60.445312 94.308594 60.863281 L 163.324219 106.875 C 163.585938 107.050781 163.835938 107.238281 164.074219 107.445312 C 164.3125 107.648438 164.539062 107.867188 164.75 108.101562 C 164.960938 108.335938 165.15625 108.578125 165.339844 108.835938 C 165.519531 109.09375 165.683594 109.359375 165.832031 109.636719 C 165.980469 109.914062 166.113281 110.199219 166.226562 110.492188 C 166.339844 110.785156 166.433594 111.085938 166.507812 111.390625 C 166.585938 111.695312 166.644531 112.003906 166.683594 112.316406 C 166.71875 112.628906 166.738281 112.941406 166.738281 113.253906 C 166.738281 113.570312 166.71875 113.882812 166.683594 114.195312 C 166.644531 114.507812 166.585938 114.816406 166.507812 115.121094 C 166.433594 115.425781 166.339844 115.722656 166.226562 116.015625 C 166.113281 116.3125 165.980469 116.597656 165.832031 116.875 C 165.683594 117.148438 165.519531 117.417969 165.339844 117.675781 C 165.15625 117.929688 164.960938 118.175781 164.75 118.410156 C 164.539062 118.640625 164.3125 118.859375 164.074219 119.066406 C 163.835938 119.269531 163.585938 119.460938 163.324219 119.636719 L 94.308594 165.644531 C 93.023438 166.503906 91.605469 166.933594 90.058594 166.933594 Z M 34.867188 113.253906 L 90.058594 150.0625 L 145.269531 113.253906 L 90.058594 76.445312 Z M 34.867188 113.253906 " fill-opacity="1" fill-rule="nonzero"/></g><g clip-path="url(#29a1a81b59)"><path fill="#5ce1e6" d="M 90.058594 120.921875 C 88.511719 120.921875 87.09375 120.492188 85.804688 119.636719 L 16.792969 73.625 C 16.53125 73.449219 16.28125 73.261719 16.042969 73.054688 C 15.804688 72.851562 15.578125 72.632812 15.367188 72.398438 C 15.15625 72.167969 14.960938 71.921875 14.777344 71.664062 C 14.597656 71.40625 14.433594 71.140625 14.285156 70.863281 C 14.136719 70.585938 14.003906 70.300781 13.890625 70.007812 C 13.777344 69.714844 13.683594 69.414062 13.609375 69.109375 C 13.53125 68.804688 13.472656 68.496094 13.433594 68.183594 C 13.398438 67.871094 13.378906 67.558594 13.378906 67.246094 C 13.378906 66.929688 13.398438 66.617188 13.433594 66.304688 C 13.472656 65.992188 13.53125 65.683594 13.609375 65.378906 C 13.683594 65.074219 13.777344 64.777344 13.890625 64.484375 C 14.003906 64.191406 14.136719 63.902344 14.285156 63.628906 C 14.433594 63.351562 14.597656 63.082031 14.777344 62.824219 C 14.960938 62.570312 15.15625 62.324219 15.367188 62.089844 C 15.578125 61.859375 15.804688 61.640625 16.042969 61.433594 C 16.28125 61.230469 16.53125 61.039062 16.792969 60.863281 L 85.804688 14.855469 C 86.4375 14.433594 87.113281 14.117188 87.835938 13.898438 C 88.5625 13.679688 89.300781 13.566406 90.058594 13.566406 C 90.816406 13.566406 91.554688 13.679688 92.28125 13.898438 C 93.003906 14.117188 93.679688 14.433594 94.308594 14.855469 L 163.324219 60.863281 C 163.585938 61.039062 163.835938 61.230469 164.074219 61.433594 C 164.3125 61.640625 164.539062 61.859375 164.75 62.089844 C 164.960938 62.324219 165.15625 62.570312 165.339844 62.824219 C 165.519531 63.082031 165.683594 63.351562 165.832031 63.628906 C 165.980469 63.902344 166.113281 64.191406 166.226562 64.484375 C 166.339844 64.777344 166.433594 65.074219 166.507812 65.378906 C 166.585938 65.683594 166.644531 65.992188 166.683594 66.304688 C 166.71875 66.617188 166.738281 66.929688 166.738281 67.246094 C 166.738281 67.558594 166.71875 67.871094 166.683594 68.183594 C 166.644531 68.496094 166.585938 68.804688 166.507812 69.109375 C 166.433594 69.414062 166.339844 69.714844 166.226562 70.007812 C 166.113281 70.300781 165.980469 70.585938 165.832031 70.863281 C 165.683594 71.140625 165.519531 71.40625 165.339844 71.664062 C 165.15625 71.921875 164.960938 72.167969 164.75 72.398438 C 164.539062 72.632812 164.3125 72.851562 164.074219 73.054688 C 163.835938 73.261719 163.585938 73.449219 163.324219 73.625 L 94.308594 119.636719 C 93.023438 120.492188 91.605469 120.921875 90.058594 120.921875 Z M 34.867188 67.246094 L 90.058594 104.054688 L 145.269531 67.246094 L 90.058594 30.4375 Z M 34.867188 67.246094 " fill-opacity="1" fill-rule="nonzero"/></g><g clip-path="url(#412beef688)"><path fill="#5ce1e6" d="M 21.042969 120.921875 C 20.539062 120.921875 20.042969 120.875 19.546875 120.777344 C 19.054688 120.679688 18.574219 120.53125 18.109375 120.339844 C 17.644531 120.148438 17.203125 119.910156 16.78125 119.632812 C 16.363281 119.351562 15.976562 119.035156 15.621094 118.675781 C 15.265625 118.320312 14.945312 117.933594 14.667969 117.515625 C 14.386719 117.097656 14.152344 116.65625 13.957031 116.191406 C 13.765625 115.722656 13.621094 115.246094 13.523438 114.75 C 13.425781 114.257812 13.375 113.757812 13.375 113.253906 L 13.375 67.246094 C 13.375 66.742188 13.425781 66.242188 13.523438 65.75 C 13.621094 65.253906 13.765625 64.777344 13.957031 64.3125 C 14.152344 63.84375 14.386719 63.402344 14.667969 62.984375 C 14.945312 62.566406 15.265625 62.179688 15.621094 61.824219 C 15.976562 61.464844 16.363281 61.148438 16.78125 60.871094 C 17.203125 60.589844 17.644531 60.351562 18.109375 60.160156 C 18.574219 59.96875 19.054688 59.824219 19.546875 59.722656 C 20.042969 59.625 20.539062 59.578125 21.042969 59.578125 C 21.546875 59.578125 22.046875 59.625 22.539062 59.722656 C 23.035156 59.824219 23.511719 59.96875 23.976562 60.160156 C 24.441406 60.351562 24.886719 60.589844 25.304688 60.871094 C 25.722656 61.148438 26.109375 61.464844 26.464844 61.824219 C 26.820312 62.179688 27.140625 62.566406 27.417969 62.984375 C 27.699219 63.402344 27.933594 63.84375 28.128906 64.3125 C 28.320312 64.777344 28.464844 65.253906 28.5625 65.75 C 28.664062 66.242188 28.710938 66.742188 28.710938 67.246094 L 28.710938 113.253906 C 28.710938 113.757812 28.664062 114.257812 28.5625 114.75 C 28.464844 115.246094 28.320312 115.722656 28.128906 116.191406 C 27.933594 116.65625 27.699219 117.097656 27.417969 117.515625 C 27.140625 117.933594 26.820312 118.320312 26.464844 118.675781 C 26.109375 119.035156 25.722656 119.351562 25.304688 119.632812 C 24.886719 119.910156 24.441406 120.148438 23.976562 120.339844 C 23.511719 120.53125 23.035156 120.679688 22.539062 120.777344 C 22.046875 120.875 21.546875 120.921875 21.042969 120.921875 Z M 21.042969 120.921875 " fill-opacity="1" fill-rule="nonzero"/></g><g clip-path="url(#79b497a116)"><path fill="#5ce1e6" d="M 159.074219 120.921875 C 158.570312 120.921875 158.070312 120.875 157.578125 120.777344 C 157.082031 120.679688 156.605469 120.53125 156.140625 120.339844 C 155.671875 120.148438 155.230469 119.910156 154.8125 119.632812 C 154.394531 119.351562 154.007812 119.035156 153.652344 118.675781 C 153.296875 118.320312 152.976562 117.933594 152.699219 117.515625 C 152.417969 117.097656 152.179688 116.65625 151.988281 116.191406 C 151.796875 115.722656 151.652344 115.246094 151.550781 114.75 C 151.453125 114.257812 151.40625 113.757812 151.40625 113.253906 L 151.40625 67.246094 C 151.40625 66.742188 151.453125 66.242188 151.550781 65.75 C 151.652344 65.253906 151.796875 64.777344 151.988281 64.3125 C 152.179688 63.84375 152.417969 63.402344 152.699219 62.984375 C 152.976562 62.566406 153.296875 62.179688 153.652344 61.824219 C 154.007812 61.464844 154.394531 61.148438 154.8125 60.871094 C 155.230469 60.589844 155.671875 60.351562 156.140625 60.160156 C 156.605469 59.96875 157.082031 59.824219 157.578125 59.722656 C 158.070312 59.625 158.570312 59.578125 159.074219 59.578125 C 159.578125 59.578125 160.074219 59.625 160.570312 59.722656 C 161.0625 59.824219 161.542969 59.96875 162.007812 60.160156 C 162.472656 60.351562 162.914062 60.589844 163.332031 60.871094 C 163.753906 61.148438 164.140625 61.464844 164.496094 61.824219 C 164.851562 62.179688 165.167969 62.566406 165.449219 62.984375 C 165.730469 63.402344 165.964844 63.84375 166.15625 64.3125 C 166.351562 64.777344 166.496094 65.253906 166.59375 65.75 C 166.691406 66.242188 166.742188 66.742188 166.742188 67.246094 L 166.742188 113.253906 C 166.742188 113.757812 166.691406 114.257812 166.59375 114.75 C 166.496094 115.246094 166.351562 115.722656 166.15625 116.191406 C 165.964844 116.65625 165.730469 117.097656 165.449219 117.515625 C 165.167969 117.933594 164.851562 118.320312 164.496094 118.675781 C 164.140625 119.035156 163.753906 119.351562 163.332031 119.632812 C 162.914062 119.910156 162.472656 120.148438 162.007812 120.339844 C 161.542969 120.53125 161.0625 120.679688 160.570312 120.777344 C 160.074219 120.875 159.578125 120.921875 159.074219 120.921875 Z M 159.074219 120.921875 " fill-opacity="1" fill-rule="nonzero"/></g><g clip-path="url(#853be91c8a)"><path fill="#5ce1e6" d="M 90.058594 74.914062 C 89.554688 74.914062 89.054688 74.863281 88.5625 74.765625 C 88.070312 74.667969 87.589844 74.523438 87.125 74.328125 C 86.660156 74.136719 86.214844 73.902344 85.796875 73.621094 C 85.378906 73.339844 84.992188 73.023438 84.636719 72.667969 C 84.28125 72.3125 83.960938 71.925781 83.683594 71.503906 C 83.402344 71.085938 83.167969 70.644531 82.972656 70.179688 C 82.78125 69.714844 82.636719 69.234375 82.539062 68.742188 C 82.4375 68.246094 82.390625 67.75 82.390625 67.246094 L 82.390625 21.234375 C 82.390625 20.730469 82.4375 20.234375 82.539062 19.738281 C 82.636719 19.246094 82.78125 18.765625 82.972656 18.300781 C 83.167969 17.835938 83.402344 17.394531 83.683594 16.976562 C 83.960938 16.554688 84.28125 16.167969 84.636719 15.8125 C 84.992188 15.457031 85.378906 15.140625 85.796875 14.859375 C 86.214844 14.578125 86.660156 14.34375 87.125 14.152344 C 87.589844 13.957031 88.070312 13.8125 88.5625 13.714844 C 89.054688 13.617188 89.554688 13.566406 90.058594 13.566406 C 90.5625 13.566406 91.0625 13.617188 91.554688 13.714844 C 92.046875 13.8125 92.527344 13.957031 92.992188 14.152344 C 93.457031 14.34375 93.898438 14.578125 94.320312 14.859375 C 94.738281 15.140625 95.125 15.457031 95.480469 15.8125 C 95.835938 16.167969 96.15625 16.554688 96.433594 16.976562 C 96.714844 17.394531 96.949219 17.835938 97.144531 18.300781 C 97.335938 18.765625 97.480469 19.246094 97.578125 19.738281 C 97.675781 20.234375 97.726562 20.730469 97.726562 21.234375 L 97.726562 67.246094 C 97.726562 67.75 97.675781 68.246094 97.578125 68.742188 C 97.480469 69.234375 97.335938 69.714844 97.144531 70.179688 C 96.949219 70.644531 96.714844 71.085938 96.433594 71.503906 C 96.15625 71.925781 95.835938 72.3125 95.480469 72.667969 C 95.125 73.023438 94.738281 73.339844 94.320312 73.621094 C 93.898438 73.902344 93.457031 74.136719 92.992188 74.328125 C 92.527344 74.523438 92.046875 74.667969 91.554688 74.765625 C 91.0625 74.863281 90.5625 74.914062 90.058594 74.914062 Z M 90.058594 74.914062 " fill-opacity="1" fill-rule="nonzero"/></g><g clip-path="url(#c020b59209)"><path fill="#5ce1e6" d="M 90.058594 166.933594 C 89.554688 166.933594 89.054688 166.882812 88.5625 166.785156 C 88.070312 166.6875 87.589844 166.542969 87.125 166.351562 C 86.660156 166.15625 86.214844 165.921875 85.796875 165.640625 C 85.378906 165.359375 84.992188 165.042969 84.636719 164.6875 C 84.28125 164.332031 83.960938 163.945312 83.683594 163.523438 C 83.402344 163.105469 83.167969 162.664062 82.972656 162.199219 C 82.78125 161.734375 82.636719 161.253906 82.539062 160.761719 C 82.4375 160.265625 82.390625 159.769531 82.390625 159.265625 L 82.390625 113.253906 C 82.390625 112.75 82.4375 112.253906 82.539062 111.757812 C 82.636719 111.265625 82.78125 110.785156 82.972656 110.320312 C 83.167969 109.855469 83.402344 109.414062 83.683594 108.996094 C 83.960938 108.574219 84.28125 108.1875 84.636719 107.832031 C 84.992188 107.476562 85.378906 107.160156 85.796875 106.878906 C 86.214844 106.597656 86.660156 106.363281 87.125 106.171875 C 87.589844 105.976562 88.070312 105.832031 88.5625 105.734375 C 89.054688 105.636719 89.554688 105.585938 90.058594 105.585938 C 90.5625 105.585938 91.0625 105.636719 91.554688 105.734375 C 92.046875 105.832031 92.527344 105.976562 92.992188 106.171875 C 93.457031 106.363281 93.898438 106.597656 94.320312 106.878906 C 94.738281 107.160156 95.125 107.476562 95.480469 107.832031 C 95.835938 108.1875 96.15625 108.574219 96.433594 108.996094 C 96.714844 109.414062 96.949219 109.855469 97.144531 110.320312 C 97.335938 110.785156 97.480469 111.265625 97.578125 111.757812 C 97.675781 112.253906 97.726562 112.75 97.726562 113.253906 L 97.726562 159.265625 C 97.726562 159.769531 97.675781 160.265625 97.578125 160.761719 C 97.480469 161.253906 97.335938 161.734375 97.144531 162.199219 C 96.949219 162.664062 96.714844 163.105469 96.433594 163.523438 C 96.15625 163.945312 95.835938 164.332031 95.480469 164.6875 C 95.125 165.042969 94.738281 165.359375 94.320312 165.640625 C 93.898438 165.921875 93.457031 166.15625 92.992188 166.351562 C 92.527344 166.542969 92.046875 166.6875 91.554688 166.785156 C 91.0625 166.882812 90.5625 166.933594 90.058594 166.933594 Z M 90.058594 166.933594 " fill-opacity="1" fill-rule="nonzero"/></g></svg>