<svg xmlns="http://www.w3.org/2000/svg" xmlns:xlink="http://www.w3.org/1999/xlink" width="240" zoomAndPan="magnify" viewBox="0 0 180 179.999997" height="240" preserveAspectRatio="xMidYMid meet" version="1.0"><defs><clipPath id="6a51944870"><path d="M 13.039062 3 L 166.789062 3 L 166.789062 176.902344 L 13.039062 176.902344 Z M 13.039062 3 " clip-rule="nonzero"/></clipPath><clipPath id="dfa914353c"><path d="M 15 89 L 165 89 L 165 176.902344 L 15 176.902344 Z M 15 89 " clip-rule="nonzero"/></clipPath><clipPath id="a75cc3997e"><path d="M 90 46 L 166.789062 46 L 166.789062 133 L 90 133 Z M 90 46 " clip-rule="nonzero"/></clipPath></defs><g clip-path="url(#6a51944870)"><path fill="#5c8dbc" d="M 166.550781 54.4375 C 166.550781 51.539062 165.925781 48.980469 164.671875 46.785156 C 163.441406 44.621094 161.601562 42.8125 159.128906 41.378906 C 138.71875 29.613281 118.296875 17.882812 97.890625 6.101562 C 92.390625 2.925781 87.058594 3.042969 81.601562 6.265625 C 73.476562 11.054688 32.804688 34.355469 20.683594 41.375 C 15.695312 44.261719 13.269531 48.683594 13.265625 54.433594 C 13.257812 78.097656 13.265625 101.761719 13.257812 125.429688 C 13.261719 128.261719 13.851562 130.765625 15.050781 132.933594 C 16.28125 135.15625 18.152344 137.023438 20.679688 138.488281 C 32.800781 145.503906 73.472656 168.800781 81.597656 173.59375 C 87.058594 176.820312 92.390625 176.933594 97.894531 173.753906 C 118.296875 161.976562 138.726562 150.242188 159.136719 138.480469 C 161.667969 137.015625 163.535156 135.152344 164.769531 132.925781 C 165.964844 130.765625 166.558594 128.253906 166.558594 125.417969 C 166.558594 125.417969 166.558594 78.105469 166.550781 54.4375 " fill-opacity="1" fill-rule="nonzero"/></g><g clip-path="url(#dfa914353c)"><path fill="#1a4674" d="M 90.140625 89.699219 L 15.050781 132.933594 C 16.28125 135.15625 18.152344 137.023438 20.679688 138.484375 C 32.800781 145.503906 73.472656 168.800781 81.597656 173.59375 C 87.058594 176.820312 92.390625 176.933594 97.894531 173.753906 C 118.296875 161.972656 138.726562 150.242188 159.136719 138.480469 C 161.667969 137.015625 163.535156 135.152344 164.769531 132.925781 L 90.144531 89.699219 " fill-opacity="1" fill-rule="nonzero"/></g><path fill="#1a4674" d="M 67.902344 102.503906 C 72.269531 110.132812 80.484375 115.28125 89.90625 115.28125 C 99.390625 115.28125 107.648438 110.066406 111.996094 102.359375 L 90.140625 89.699219 L 67.902344 102.503906 " fill-opacity="1" fill-rule="nonzero"/><g clip-path="url(#a75cc3997e)"><path fill="#1b598e" d="M 166.550781 54.4375 C 166.550781 51.539062 165.925781 48.980469 164.671875 46.785156 L 90.140625 89.699219 L 164.769531 132.925781 C 165.960938 130.765625 166.554688 128.253906 166.554688 125.417969 C 166.554688 125.417969 166.554688 78.105469 166.550781 54.4375 " fill-opacity="1" fill-rule="nonzero"/></g><path fill="#ffffff" d="M 162.445312 92.789062 L 156.617188 92.789062 L 156.617188 98.617188 L 150.78125 98.617188 L 150.78125 92.789062 L 144.949219 92.789062 L 144.949219 86.957031 L 150.78125 86.957031 L 150.78125 81.128906 L 156.617188 81.128906 L 156.617188 86.957031 L 162.445312 86.957031 L 162.445312 92.789062 " fill-opacity="1" fill-rule="nonzero"/><path fill="#ffffff" d="M 141.164062 92.789062 L 135.335938 92.789062 L 135.335938 98.617188 L 129.503906 98.617188 L 129.503906 92.789062 L 123.675781 92.789062 L 123.675781 86.957031 L 129.503906 86.957031 L 129.503906 81.128906 L 135.335938 81.128906 L 135.335938 86.957031 L 141.164062 86.957031 L 141.164062 92.789062 " fill-opacity="1" fill-rule="nonzero"/><path fill="#ffffff" d="M 111.996094 102.359375 C 107.648438 110.066406 99.390625 115.28125 89.90625 115.28125 C 80.484375 115.28125 72.269531 110.132812 67.902344 102.503906 C 65.777344 98.796875 64.558594 94.507812 64.558594 89.925781 C 64.558594 75.929688 75.90625 64.578125 89.90625 64.578125 C 99.269531 64.578125 107.4375 69.660156 111.828125 77.210938 L 133.984375 64.453125 C 125.179688 49.25 108.742188 39.023438 89.90625 39.023438 C 61.792969 39.023438 39 61.8125 39 89.925781 C 39 99.152344 41.453125 107.800781 45.742188 115.261719 C 54.527344 130.546875 71.015625 140.835938 89.90625 140.835938 C 108.835938 140.835938 125.347656 130.503906 134.117188 115.179688 L 111.996094 102.359375 " fill-opacity="1" fill-rule="nonzero"/></svg>