<svg xmlns="http://www.w3.org/2000/svg" xmlns:xlink="http://www.w3.org/1999/xlink" width="240" zoomAndPan="magnify" viewBox="0 0 180 179.999997" height="240" preserveAspectRatio="xMidYMid meet" version="1.0"><defs><clipPath id="d15bba81aa"><path d="M 19 11.296875 L 161 11.296875 L 161 168.796875 L 19 168.796875 Z M 19 11.296875 " clip-rule="nonzero"/></clipPath><clipPath id="f45d7372e5"><path d="M 19 11.296875 L 160 11.296875 L 160 129 L 19 129 Z M 19 11.296875 " clip-rule="nonzero"/></clipPath></defs><g clip-path="url(#d15bba81aa)"><path fill="#990b61" d="M 85.933594 12.738281 C 88.464844 11.316406 91.585938 11.316406 94.113281 12.738281 C 106.632812 19.765625 144.304688 40.921875 156.828125 47.949219 C 159.359375 49.367188 160.917969 51.996094 160.917969 54.839844 C 160.917969 68.894531 160.917969 111.199219 160.917969 125.253906 C 160.917969 128.097656 159.359375 130.726562 156.828125 132.148438 C 144.308594 139.175781 106.636719 160.332031 94.113281 167.359375 C 91.582031 168.78125 88.460938 168.78125 85.933594 167.359375 C 73.414062 160.332031 35.742188 139.175781 23.222656 132.148438 C 20.691406 130.726562 19.132812 128.101562 19.132812 125.257812 C 19.132812 111.203125 19.132812 68.898438 19.132812 54.84375 C 19.132812 52 20.691406 49.371094 23.226562 47.949219 C 35.738281 40.921875 73.417969 19.765625 85.933594 12.738281 Z M 85.933594 12.738281 " fill-opacity="1" fill-rule="nonzero"/></g><g clip-path="url(#f45d7372e5)"><path fill="#990b61" d="M 20.265625 128.878906 C 19.273438 127.550781 19.132812 126.289062 19.132812 124.589844 C 19.132812 110.617188 19.132812 68.554688 19.132812 54.578125 C 19.132812 51.75 20.6875 49.136719 23.214844 47.726562 C 35.6875 40.738281 73.230469 19.707031 85.703125 12.71875 C 88.230469 11.300781 91.652344 11.332031 94.179688 12.746094 C 106.652344 19.734375 144.070312 40.585938 156.542969 47.574219 C 157.550781 48.140625 158.320312 48.824219 159.003906 49.722656 Z M 20.265625 128.878906 " fill-opacity="1" fill-rule="nonzero"/></g><path fill="#ffffff" d="M 90.027344 37.796875 C 61.183594 37.796875 37.789062 61.199219 37.789062 90.046875 C 37.789062 118.898438 61.183594 142.300781 90.027344 142.300781 C 118.867188 142.300781 142.261719 118.898438 142.261719 90.046875 C 142.261719 61.199219 118.867188 37.796875 90.027344 37.796875 Z M 90.027344 116.175781 C 75.621094 116.175781 63.90625 104.457031 63.90625 90.046875 C 63.90625 75.640625 75.621094 63.921875 90.027344 63.921875 C 104.429688 63.921875 116.144531 75.640625 116.144531 90.046875 C 116.144531 104.457031 104.429688 116.175781 90.027344 116.175781 Z M 90.027344 116.175781 " fill-opacity="1" fill-rule="nonzero"/><path fill="#990b61" d="M 158.996094 49.757812 C 160.921875 51.5625 160.886719 54.277344 160.886719 56.417969 C 160.886719 70.582031 160.765625 110.867188 160.917969 125.03125 C 160.933594 126.507812 160.445312 128.066406 159.714844 129.238281 L 88.507812 90.046875 Z M 158.996094 49.757812 " fill-opacity="1" fill-rule="nonzero"/><path fill="#ffffff" d="M 127.339844 75.121094 L 131.070312 75.121094 L 131.070312 104.976562 L 127.339844 104.976562 Z M 138.53125 75.121094 L 142.261719 75.121094 L 142.261719 104.976562 L 138.53125 104.976562 Z M 138.53125 75.121094 " fill-opacity="1" fill-rule="nonzero"/><path fill="#ffffff" d="M 119.875 93.78125 L 149.726562 93.78125 L 149.726562 97.511719 L 119.875 97.511719 Z M 119.875 82.585938 L 149.726562 82.585938 L 149.726562 86.316406 L 119.875 86.316406 Z M 119.875 82.585938 " fill-opacity="1" fill-rule="nonzero"/></svg>