<svg xmlns="http://www.w3.org/2000/svg" xmlns:xlink="http://www.w3.org/1999/xlink" width="240" zoomAndPan="magnify" viewBox="0 0 180 179.999997" height="240" preserveAspectRatio="xMidYMid meet" version="1.0"><defs><clipPath id="653f93da5b"><path d="M 32.035156 49 L 93 49 L 93 136 L 32.035156 136 Z M 32.035156 49 " clip-rule="nonzero"/></clipPath><clipPath id="4778074c4d"><path d="M 32.035156 40 L 148.285156 40 L 148.285156 166.859375 L 32.035156 166.859375 Z M 32.035156 40 " clip-rule="nonzero"/></clipPath><clipPath id="c0b6cddb6d"><path d="M 32.035156 6 L 78 6 L 78 136 L 32.035156 136 Z M 32.035156 6 " clip-rule="nonzero"/></clipPath></defs><path fill="#ffa000" d="M 108.609375 64.488281 L 92.507812 79.414062 L 77.566406 49.390625 L 85.296875 32.125 C 87.308594 28.617188 90.445312 28.660156 92.40625 32.125 Z M 108.609375 64.488281 " fill-opacity="1" fill-rule="nonzero"/><g clip-path="url(#653f93da5b)"><path fill="#f57f17" d="M 77.566406 49.390625 L 92.507812 79.414062 L 32.332031 135.175781 Z M 77.566406 49.390625 " fill-opacity="1" fill-rule="nonzero"/></g><g clip-path="url(#4778074c4d)"><path fill="#ffca28" d="M 126.21875 41.679688 C 129.09375 38.925781 132.070312 39.867188 132.828125 43.765625 L 148.492188 134.433594 L 96.574219 165.480469 C 94.765625 166.484375 89.9375 166.914062 89.9375 166.914062 C 89.9375 166.914062 85.542969 166.390625 83.871094 165.410156 L 32.332031 135.175781 Z M 126.21875 41.679688 " fill-opacity="1" fill-rule="nonzero"/></g><g clip-path="url(#c0b6cddb6d)"><path fill="#ffa000" d="M 77.566406 49.390625 L 32.339844 135.175781 L 52.480469 9.804688 C 53.226562 5.898438 55.457031 5.523438 57.449219 8.96875 Z M 77.566406 49.390625 " fill-opacity="1" fill-rule="nonzero"/></g></svg>