<svg xmlns="http://www.w3.org/2000/svg" xmlns:xlink="http://www.w3.org/1999/xlink" width="240" zoomAndPan="magnify" viewBox="0 0 180 179.999997" height="240" preserveAspectRatio="xMidYMid meet" version="1.0"><defs><clipPath id="0aa8e0064c"><path d="M 30.453125 39 L 149.703125 39 L 149.703125 174.023438 L 30.453125 174.023438 Z M 30.453125 39 " clip-rule="nonzero"/></clipPath><clipPath id="0cbdce759d"><path d="M 41 6.023438 L 64 6.023438 L 64 29 L 41 29 Z M 41 6.023438 " clip-rule="nonzero"/></clipPath><clipPath id="13018171b3"><path d="M 67 6.023438 L 88 6.023438 L 88 29 L 67 29 Z M 67 6.023438 " clip-rule="nonzero"/></clipPath><clipPath id="4c4b63b9cb"><path d="M 91 6.023438 L 117 6.023438 L 117 29 L 91 29 Z M 91 6.023438 " clip-rule="nonzero"/></clipPath><clipPath id="763aaef3dd"><path d="M 120 6.023438 L 139 6.023438 L 139 29 L 120 29 Z M 120 6.023438 " clip-rule="nonzero"/></clipPath></defs><g clip-path="url(#0aa8e0064c)"><path fill="#e44d26" d="M 149.667969 39.039062 L 138.816406 160.507812 L 90.027344 174.015625 L 41.375 160.523438 L 30.53125 39.039062 L 149.671875 39.039062 Z M 149.667969 39.039062 " fill-opacity="1" fill-rule="nonzero"/></g><path fill="#f16529" d="M 90.101562 163.691406 L 129.527344 152.773438 L 138.800781 48.972656 L 90.101562 48.972656 Z M 90.101562 163.691406 " fill-opacity="1" fill-rule="nonzero"/><path fill="#ebebeb" d="M 69.003906 78.769531 L 90.101562 78.769531 L 90.101562 63.871094 L 52.703125 63.871094 L 53.058594 67.867188 L 56.722656 108.929688 L 90.101562 108.929688 L 90.101562 94.03125 L 70.363281 94.03125 Z M 69.003906 78.769531 " fill-opacity="1" fill-rule="nonzero"/><path fill="#ebebeb" d="M 72.363281 116.378906 L 57.390625 116.378906 L 59.480469 139.777344 L 90.03125 148.246094 L 90.101562 148.230469 L 90.101562 132.726562 L 90.035156 132.746094 L 73.425781 128.261719 Z M 72.363281 116.378906 " fill-opacity="1" fill-rule="nonzero"/><g clip-path="url(#0cbdce759d)"><path fill="#ffffff" d="M 41.617188 6.023438 L 49.195312 6.023438 L 49.195312 13.503906 L 56.128906 13.503906 L 56.128906 6.023438 L 63.710938 6.023438 L 63.710938 28.679688 L 56.128906 28.679688 L 56.128906 21.09375 L 49.195312 21.09375 L 49.195312 28.679688 L 41.617188 28.679688 Z M 41.617188 6.023438 " fill-opacity="1" fill-rule="nonzero"/></g><g clip-path="url(#13018171b3)"><path fill="#ffffff" d="M 73.675781 13.535156 L 67.003906 13.535156 L 67.003906 6.023438 L 87.933594 6.023438 L 87.933594 13.535156 L 81.257812 13.535156 L 81.257812 28.679688 L 73.679688 28.679688 L 73.679688 13.535156 Z M 73.675781 13.535156 " fill-opacity="1" fill-rule="nonzero"/></g><g clip-path="url(#4c4b63b9cb)"><path fill="#ffffff" d="M 91.253906 6.023438 L 99.15625 6.023438 L 104.019531 13.984375 L 108.875 6.023438 L 116.78125 6.023438 L 116.78125 28.679688 L 109.234375 28.679688 L 109.234375 17.449219 L 104.019531 25.503906 L 103.886719 25.503906 L 98.671875 17.449219 L 98.671875 28.679688 L 91.253906 28.679688 Z M 91.253906 6.023438 " fill-opacity="1" fill-rule="nonzero"/></g><g clip-path="url(#763aaef3dd)"><path fill="#ffffff" d="M 120.554688 6.023438 L 128.136719 6.023438 L 128.136719 21.191406 L 138.796875 21.191406 L 138.796875 28.679688 L 120.554688 28.679688 Z M 120.554688 6.023438 " fill-opacity="1" fill-rule="nonzero"/></g><path fill="#ffffff" d="M 90.050781 108.929688 L 108.417969 108.929688 L 106.6875 128.253906 L 90.050781 132.738281 L 90.050781 148.238281 L 120.625 139.777344 L 120.851562 137.257812 L 124.359375 98.03125 L 124.722656 94.03125 L 90.050781 94.03125 Z M 90.050781 108.929688 " fill-opacity="1" fill-rule="nonzero"/><path fill="#ffffff" d="M 90.050781 78.734375 L 90.050781 78.769531 L 126.074219 78.769531 L 126.375 75.421875 L 127.058594 67.867188 L 127.410156 63.871094 L 90.050781 63.871094 Z M 90.050781 78.734375 " fill-opacity="1" fill-rule="nonzero"/></svg>