<svg xmlns="http://www.w3.org/2000/svg" xmlns:xlink="http://www.w3.org/1999/xlink" width="240" zoomAndPan="magnify" viewBox="0 0 180 179.999997" height="240" preserveAspectRatio="xMidYMid meet" version="1.0"><defs><clipPath id="b3b4c43181"><path d="M 46 8.203125 L 130 8.203125 L 130 171.703125 L 46 171.703125 Z M 46 8.203125 " clip-rule="nonzero"/></clipPath></defs><path fill="#4e7896" d="M 75.640625 94.910156 C 75.640625 94.910156 71.324219 97.53125 78.644531 98.28125 C 87.464844 99.402344 92.15625 99.214844 101.914062 97.34375 C 101.914062 97.34375 104.542969 99.027344 108.105469 100.339844 C 86.148438 109.703125 58.375 99.777344 75.640625 94.910156 Z M 72.824219 82.734375 C 72.824219 82.734375 68.132812 86.292969 75.453125 87.042969 C 85.023438 87.980469 92.53125 88.167969 105.480469 85.546875 C 105.480469 85.546875 107.167969 87.417969 109.984375 88.355469 C 83.523438 96.21875 53.867188 89.101562 72.824219 82.738281 Z M 124.625 104.082031 C 124.625 104.082031 127.8125 106.703125 121.058594 108.765625 C 108.484375 112.511719 68.324219 113.632812 57.0625 108.765625 C 53.121094 107.078125 60.625 104.644531 63.066406 104.269531 C 65.503906 103.707031 66.820312 103.707031 66.820312 103.707031 C 62.503906 100.710938 38.105469 109.886719 54.433594 112.511719 C 99.285156 119.8125 136.257812 109.328125 124.625 104.082031 Z M 77.707031 70 C 77.707031 70 57.25 74.867188 70.386719 76.554688 C 76.015625 77.304688 87.089844 77.117188 97.410156 76.367188 C 105.855469 75.617188 114.300781 74.121094 114.300781 74.121094 C 114.300781 74.121094 111.300781 75.429688 109.234375 76.742188 C 88.402344 82.171875 48.429688 79.738281 59.875 74.121094 C 69.636719 69.4375 77.707031 70 77.707031 70 Z M 114.300781 90.414062 C 135.320312 79.550781 125.5625 69.0625 118.804688 70.375 C 117.117188 70.75 116.367188 71.125 116.367188 71.125 C 116.367188 71.125 116.929688 70 118.242188 69.625 C 131.566406 64.945312 142.078125 83.671875 113.925781 90.972656 C 113.925781 90.972656 114.113281 90.785156 114.300781 90.410156 Z M 79.769531 120 C 100.039062 121.3125 131 119.25 131.757812 109.699219 C 131.757812 109.699219 130.253906 113.445312 115.054688 116.253906 C 97.789062 119.4375 76.394531 119.0625 63.824219 117.003906 C 63.824219 117.003906 66.449219 119.25 79.773438 120 Z M 79.769531 120 " fill-opacity="1" fill-rule="nonzero"/><g clip-path="url(#b3b4c43181)"><path fill="#f58219" d="M 101.539062 8.203125 C 101.539062 8.203125 113.171875 20 90.464844 37.789062 C 72.261719 52.210938 86.335938 60.449219 90.464844 69.8125 C 79.769531 60.261719 72.074219 51.835938 77.328125 43.96875 C 85.023438 32.359375 106.230469 26.746094 101.539062 8.203125 Z M 95.535156 61.949219 C 100.980469 68.128906 94.035156 73.746094 94.035156 73.746094 C 94.035156 73.746094 107.921875 66.632812 101.542969 57.828125 C 95.722656 49.402344 91.21875 45.28125 115.617188 31.242188 C 115.617188 31.242188 77.144531 40.792969 95.535156 61.953125 Z M 81.644531 162.507812 L 81.644531 144.15625 C 81.644531 139.476562 79.019531 136.292969 72.449219 136.292969 C 68.695312 136.292969 65.507812 137.226562 62.691406 138.347656 L 63.628906 141.71875 C 65.691406 140.96875 68.320312 140.21875 71.136719 140.21875 C 74.703125 140.21875 76.390625 141.71875 76.390625 144.714844 L 76.390625 147.148438 L 74.515625 147.148438 C 65.507812 147.148438 61.378906 150.519531 61.378906 155.953125 C 61.378906 160.445312 64.191406 163.066406 69.261719 163.066406 C 72.449219 163.066406 74.890625 161.570312 77.144531 159.695312 L 77.519531 162.503906 L 81.648438 162.503906 Z M 76.390625 156.515625 C 74.515625 158.203125 72.449219 159.136719 70.574219 159.136719 C 68.132812 159.136719 66.632812 157.640625 66.632812 155.019531 C 66.632812 152.398438 68.132812 150.523438 74.140625 150.523438 L 76.390625 150.523438 Z M 99.289062 162.507812 L 92.71875 162.507812 L 84.835938 136.851562 L 90.46875 136.851562 L 95.347656 152.582031 L 96.472656 157.265625 C 98.914062 150.523438 100.789062 143.59375 101.539062 136.851562 L 107.171875 136.851562 C 105.667969 145.28125 103.042969 154.457031 99.289062 162.507812 Z M 129.691406 162.507812 L 129.691406 144.15625 C 129.691406 139.476562 127.0625 136.292969 120.492188 136.292969 C 116.742188 136.292969 113.550781 137.226562 110.734375 138.347656 L 111.484375 141.71875 C 113.738281 140.96875 116.363281 140.21875 119.179688 140.21875 C 122.746094 140.21875 124.433594 141.71875 124.433594 144.714844 L 124.433594 147.148438 L 122.558594 147.148438 C 113.550781 147.148438 109.421875 150.519531 109.421875 155.953125 C 109.421875 160.445312 112.050781 163.066406 117.117188 163.066406 C 120.496094 163.066406 122.933594 161.570312 125.1875 159.695312 L 125.5625 162.503906 L 129.691406 162.503906 Z M 124.433594 156.515625 C 122.558594 158.203125 120.496094 159.136719 118.617188 159.136719 C 116.175781 159.136719 114.675781 157.640625 114.675781 155.019531 C 114.675781 152.398438 116.179688 150.523438 122.183594 150.523438 L 124.433594 150.523438 Z M 55.5625 166.816406 C 54.058594 169.0625 51.808594 170.75 48.992188 171.6875 L 46.550781 168.691406 C 48.425781 167.566406 50.304688 165.882812 51.054688 164.382812 C 51.804688 163.074219 51.992188 161.199219 51.992188 156.894531 L 51.992188 127.679688 L 57.625 127.679688 L 57.625 156.519531 C 57.625 162.324219 57.0625 164.570312 55.5625 166.820312 Z M 55.5625 166.816406 " fill-opacity="1" fill-rule="nonzero"/></g></svg>