<svg xmlns="http://www.w3.org/2000/svg" xmlns:xlink="http://www.w3.org/1999/xlink" width="240" zoomAndPan="magnify" viewBox="0 0 180 179.999997" height="240" preserveAspectRatio="xMidYMid meet" version="1.0"><defs><clipPath id="b17a36d301"><path d="M 13.445312 13.445312 L 166.445312 13.445312 L 166.445312 166.445312 L 13.445312 166.445312 Z M 13.445312 13.445312 " clip-rule="nonzero"/></clipPath></defs><g clip-path="url(#b17a36d301)"><path fill="#0277b5" d="M 153.660156 13.445312 L 26.300781 13.445312 C 19.261719 13.445312 13.597656 19.183594 13.597656 26.148438 L 13.597656 153.738281 C 13.597656 160.78125 19.335938 166.445312 26.300781 166.445312 L 153.585938 166.445312 C 160.625 166.445312 166.289062 160.703125 166.289062 153.738281 L 166.289062 26.148438 C 166.367188 19.183594 160.703125 13.445312 153.660156 13.445312 Z M 58.832031 139.65625 L 36.25 139.65625 L 36.25 71.84375 L 58.832031 71.84375 Z M 47.503906 63.652344 C 40.386719 63.652344 34.644531 57.914062 34.644531 50.792969 C 34.644531 43.675781 40.386719 37.9375 47.503906 37.9375 C 54.621094 37.9375 60.363281 43.675781 60.363281 50.792969 C 60.363281 57.914062 54.621094 63.652344 47.503906 63.652344 Z M 143.789062 139.65625 L 121.132812 139.65625 L 120.597656 99.394531 C 120.597656 99.394531 121.132812 88.679688 109.421875 88.757812 C 97.710938 88.832031 96.105469 99.394531 96.105469 99.394531 L 96.105469 139.65625 L 73.296875 139.65625 L 73.296875 71.84375 L 95.1875 71.84375 L 95.1875 81.179688 C 95.1875 81.179688 96.105469 78.117188 101.15625 74.519531 C 106.207031 70.921875 114.550781 70.160156 118.148438 70.3125 C 121.746094 70.464844 126.644531 69.851562 134.832031 75.515625 C 143.636719 81.5625 143.863281 97.40625 143.863281 97.40625 Z M 143.789062 139.65625 " fill-opacity="1" fill-rule="nonzero"/></g></svg>