<svg xmlns="http://www.w3.org/2000/svg" xmlns:xlink="http://www.w3.org/1999/xlink" width="240" zoomAndPan="magnify" viewBox="0 0 180 179.999997" height="240" preserveAspectRatio="xMidYMid meet" version="1.0"><defs><clipPath id="028b91e896"><path d="M 8 89 L 76 89 L 76 122.804688 L 8 122.804688 Z M 8 89 " clip-rule="nonzero"/></clipPath></defs><g clip-path="url(#028b91e896)"><path fill="#00618a" d="M 8.121094 115.289062 L 13.519531 115.289062 L 13.519531 93.910156 L 21.871094 112.554688 C 22.859375 114.800781 24.207031 115.609375 26.851562 115.609375 C 29.5 115.609375 30.796875 114.808594 31.785156 112.554688 L 40.136719 93.910156 L 40.136719 115.296875 L 45.535156 115.296875 L 45.535156 93.945312 C 45.535156 91.863281 44.703125 90.855469 42.992188 90.335938 C 38.890625 89.050781 36.140625 90.164062 34.898438 92.941406 L 26.699219 111.339844 L 18.757812 92.933594 C 17.566406 90.15625 14.765625 89.042969 10.664062 90.328125 C 8.953125 90.851562 8.121094 91.855469 8.121094 93.9375 Z M 50.019531 97.882812 L 55.414062 97.882812 L 55.414062 109.664062 C 55.363281 110.304688 55.621094 111.808594 58.574219 111.851562 C 60.082031 111.878906 70.214844 111.851562 70.308594 111.851562 L 70.308594 97.824219 L 75.714844 97.824219 C 75.738281 97.824219 75.710938 116.953125 75.710938 117.035156 C 75.742188 121.753906 69.878906 122.777344 67.175781 122.855469 L 50.136719 122.855469 L 50.136719 119.214844 L 67.207031 119.210938 C 70.679688 118.84375 70.269531 117.113281 70.269531 116.527344 L 70.269531 115.109375 L 58.800781 115.109375 C 53.464844 115.058594 50.066406 112.722656 50.023438 110.03125 C 50.019531 109.792969 50.140625 98 50.023438 97.882812 Z M 50.019531 97.882812 " fill-opacity="1" fill-rule="nonzero"/></g><path fill="#e48e00" d="M 79.875 115.289062 L 95.390625 115.289062 C 97.207031 115.289062 98.96875 114.90625 100.371094 114.246094 C 102.707031 113.171875 103.847656 111.710938 103.847656 109.800781 L 103.847656 105.847656 C 103.847656 104.285156 102.550781 102.824219 100.011719 101.855469 C 98.660156 101.332031 97 101.054688 95.390625 101.054688 L 88.855469 101.054688 C 86.675781 101.054688 85.636719 100.394531 85.378906 98.9375 C 85.328125 98.765625 85.328125 98.617188 85.328125 98.453125 L 85.328125 95.988281 C 85.328125 95.847656 85.328125 95.710938 85.378906 95.535156 C 85.636719 94.425781 86.207031 94.113281 88.128906 93.929688 C 88.285156 93.929688 88.492188 93.894531 88.648438 93.894531 L 104.058594 93.894531 L 104.058594 90.285156 L 88.90625 90.285156 C 86.726562 90.285156 85.585938 90.425781 84.546875 90.738281 C 81.328125 91.746094 79.925781 93.351562 79.925781 96.125 L 79.925781 99.285156 C 79.925781 101.714844 82.675781 103.796875 87.292969 104.285156 C 87.8125 104.320312 88.332031 104.351562 88.847656 104.351562 L 94.453125 104.351562 C 94.660156 104.351562 94.871094 104.351562 95.023438 104.386719 C 96.734375 104.527344 97.464844 104.839844 97.980469 105.464844 C 98.300781 105.785156 98.398438 106.089844 98.398438 106.425781 L 98.398438 109.585938 C 98.398438 109.96875 98.140625 110.453125 97.621094 110.871094 C 97.152344 111.289062 96.375 111.5625 95.335938 111.632812 C 95.128906 111.632812 94.972656 111.667969 94.765625 111.667969 L 79.875 111.667969 Z M 137.511719 109.003906 C 137.511719 112.71875 140.261719 114.800781 145.8125 115.21875 C 146.332031 115.257812 146.851562 115.28125 147.371094 115.289062 L 161.429688 115.289062 L 161.429688 111.675781 L 147.265625 111.675781 C 144.101562 111.675781 142.90625 110.878906 142.90625 108.96875 L 142.90625 90.292969 L 137.511719 90.292969 Z M 107.292969 109.191406 L 107.292969 96.324219 C 107.292969 93.054688 109.578125 91.070312 114.101562 90.445312 C 114.585938 90.375 115.070312 90.339844 115.558594 90.339844 L 125.800781 90.339844 C 126.308594 90.339844 126.808594 90.375 127.308594 90.445312 C 131.832031 91.070312 134.121094 93.054688 134.121094 96.324219 L 134.121094 109.191406 C 134.121094 111.84375 133.148438 113.265625 130.910156 114.191406 L 136.226562 119.007812 L 129.960938 119.007812 L 125.660156 115.109375 L 121.332031 115.386719 L 115.558594 115.386719 C 114.570312 115.386719 113.53125 115.246094 112.386719 114.933594 C 108.949219 113.992188 107.292969 112.183594 107.292969 109.191406 Z M 113.117188 108.871094 C 113.117188 109.046875 113.167969 109.21875 113.21875 109.429688 C 113.539062 110.925781 114.9375 111.757812 117.058594 111.757812 L 121.960938 111.757812 L 117.460938 107.679688 L 123.726562 107.679688 L 127.644531 111.238281 C 128.367188 110.851562 128.84375 110.257812 129.003906 109.5 C 129.054688 109.324219 129.054688 109.152344 129.054688 108.976562 L 129.054688 96.636719 C 129.054688 96.5 129.054688 96.316406 129.003906 96.148438 C 128.683594 94.757812 127.285156 93.957031 125.207031 93.957031 L 117.074219 93.957031 C 114.675781 93.957031 113.121094 95.003906 113.121094 96.636719 L 113.121094 108.882812 Z M 113.117188 108.871094 " fill-opacity="1" fill-rule="nonzero"/><path fill="#00618a" d="M 166.175781 84.304688 C 162.859375 84.214844 160.324219 84.523438 158.160156 85.441406 C 157.542969 85.699219 156.5625 85.707031 156.460938 86.480469 C 156.800781 86.835938 156.851562 87.367188 157.121094 87.804688 C 157.636719 88.648438 158.511719 89.773438 159.289062 90.363281 C 160.140625 91.007812 161.019531 91.695312 161.933594 92.253906 C 163.554688 93.25 165.367188 93.816406 166.929688 94.8125 C 167.851562 95.398438 168.765625 96.136719 169.664062 96.796875 C 170.109375 97.125 170.410156 97.632812 170.984375 97.839844 L 170.984375 97.746094 C 170.679688 97.355469 170.605469 96.824219 170.324219 96.421875 L 169.101562 95.191406 C 167.898438 93.585938 166.378906 92.191406 164.761719 91.023438 C 163.472656 90.09375 160.582031 88.839844 160.042969 87.332031 L 159.949219 87.238281 C 160.863281 87.132812 161.9375 86.800781 162.78125 86.574219 C 164.199219 86.195312 165.46875 86.292969 166.933594 85.914062 L 168.914062 85.34375 L 168.914062 84.964844 C 168.171875 84.203125 167.644531 83.195312 166.835938 82.507812 C 164.726562 80.699219 162.421875 78.898438 160.046875 77.394531 C 158.730469 76.558594 157.105469 76.019531 155.707031 75.3125 C 155.238281 75.074219 154.414062 74.949219 154.105469 74.554688 C 153.371094 73.617188 152.972656 72.425781 152.40625 71.34375 C 151.222656 69.054688 150.0625 66.554688 149.011719 64.148438 C 148.296875 62.507812 147.828125 60.890625 146.9375 59.417969 C 142.65625 52.351562 138.042969 48.085938 130.902344 43.894531 C 129.382812 43.003906 127.554688 42.652344 125.621094 42.191406 L 122.507812 42 C 121.875 41.738281 121.214844 40.957031 120.621094 40.582031 C 118.253906 39.078125 112.1875 35.820312 110.433594 40.097656 C 109.328125 42.804688 112.089844 45.449219 113.074219 46.820312 C 113.769531 47.78125 114.65625 48.859375 115.148438 49.945312 C 115.476562 50.65625 115.53125 51.367188 115.8125 52.121094 C 116.496094 53.96875 117.09375 55.992188 117.980469 57.707031 C 118.429688 58.570312 118.921875 59.484375 119.488281 60.261719 C 119.835938 60.738281 120.433594 60.945312 120.527344 61.679688 C 119.945312 62.5 119.910156 63.769531 119.582031 64.804688 C 118.109375 69.46875 118.664062 75.265625 120.808594 78.71875 C 121.46875 79.777344 123.015625 82.050781 125.148438 81.179688 C 127.011719 80.417969 126.585938 78.058594 127.128906 75.976562 C 127.25 75.5 127.175781 75.15625 127.410156 74.839844 L 127.410156 74.933594 L 129.109375 78.339844 C 130.367188 80.371094 132.597656 82.492188 134.484375 83.925781 C 135.464844 84.667969 136.246094 85.953125 137.503906 86.386719 L 137.503906 86.292969 L 137.410156 86.292969 C 137.164062 85.90625 136.78125 85.75 136.464844 85.441406 C 135.726562 84.714844 134.90625 83.8125 134.296875 82.980469 C 132.578125 80.640625 131.058594 78.078125 129.675781 75.410156 C 129.015625 74.136719 128.441406 72.730469 127.882812 71.433594 C 127.667969 70.933594 127.671875 70.179688 127.222656 69.917969 C 126.613281 70.871094 125.714844 71.636719 125.242188 72.757812 C 124.488281 74.550781 124.390625 76.738281 124.109375 79.007812 C 123.945312 79.066406 124.019531 79.023438 123.921875 79.101562 C 122.609375 78.78125 122.148438 77.425781 121.660156 76.261719 C 120.425781 73.316406 120.195312 68.574219 121.28125 65.1875 C 121.5625 64.3125 122.832031 61.546875 122.320312 60.738281 C 122.074219 59.929688 121.261719 59.453125 120.808594 58.84375 C 120.25 58.082031 119.6875 57.074219 119.300781 56.195312 C 118.289062 53.898438 117.816406 51.324219 116.753906 49 C 116.246094 47.890625 115.386719 46.769531 114.679688 45.789062 C 113.898438 44.699219 113.019531 43.894531 112.414062 42.578125 C 112.199219 42.109375 111.90625 41.359375 112.226562 40.875 C 112.296875 40.566406 112.484375 40.375 112.792969 40.308594 C 113.339844 39.886719 114.863281 40.449219 115.433594 40.6875 C 116.945312 41.316406 118.210938 41.917969 119.492188 42.769531 C 120.105469 43.171875 120.726562 43.96875 121.472656 44.191406 L 122.320312 44.191406 C 123.644531 44.496094 125.132812 44.285156 126.375 44.664062 C 128.566406 45.332031 130.53125 46.371094 132.316406 47.503906 C 137.753906 50.949219 142.199219 55.851562 145.238281 61.707031 C 145.726562 62.648438 145.9375 63.550781 146.371094 64.546875 C 147.238281 66.554688 148.335938 68.636719 149.199219 70.605469 C 150.0625 72.570312 150.902344 74.554688 152.125 76.191406 C 152.765625 77.046875 155.242188 77.511719 156.367188 77.988281 C 157.15625 78.320312 158.449219 78.671875 159.199219 79.125 C 160.625 79.988281 162.007812 81.015625 163.347656 81.964844 C 164.019531 82.4375 166.074219 83.476562 166.179688 84.332031 Z M 166.175781 84.304688 " fill-opacity="1" fill-rule="nonzero"/><path fill="#00618a" d="M 124.019531 48.242188 C 123.328125 48.230469 122.839844 48.320312 122.320312 48.433594 L 122.320312 48.527344 L 122.414062 48.527344 C 122.746094 49.207031 123.328125 49.644531 123.734375 50.230469 L 124.679688 52.21875 L 124.773438 52.125 C 125.355469 51.710938 125.625 51.050781 125.621094 50.039062 C 125.386719 49.792969 125.351562 49.484375 125.148438 49.1875 C 124.878906 48.796875 124.347656 48.570312 124.015625 48.242188 Z M 124.019531 48.242188 " fill-opacity="1" fill-rule="evenodd"/><path fill="#e48e00" d="M 163.96875 111.574219 C 163.96875 113.957031 165.84375 115.566406 167.945312 115.566406 C 170.042969 115.566406 171.921875 113.957031 171.921875 111.574219 C 171.921875 109.191406 170.042969 107.585938 167.945312 107.585938 C 165.84375 107.585938 163.96875 109.191406 163.96875 111.574219 Z M 171.03125 111.574219 C 171.03125 113.382812 169.652344 114.734375 167.941406 114.734375 C 166.214844 114.734375 164.855469 113.382812 164.855469 111.574219 C 164.855469 109.765625 166.214844 108.414062 167.941406 108.414062 C 169.652344 108.414062 171.03125 109.765625 171.03125 111.574219 Z M 169.015625 113.851562 L 169.90625 113.851562 L 168.601562 111.851562 C 169.300781 111.777344 169.832031 111.4375 169.832031 110.605469 C 169.832031 109.679688 169.246094 109.296875 168.125 109.296875 L 166.351562 109.296875 L 166.351562 113.851562 L 167.117188 113.851562 L 167.117188 111.882812 L 167.828125 111.882812 Z M 167.117188 111.246094 L 167.117188 109.9375 L 167.996094 109.9375 C 168.453125 109.9375 169.003906 110.019531 169.003906 110.554688 C 169.003906 111.191406 168.503906 111.246094 167.933594 111.246094 Z M 167.117188 111.246094 " fill-opacity="1" fill-rule="evenodd"/></svg>