<svg xmlns="http://www.w3.org/2000/svg" xmlns:xlink="http://www.w3.org/1999/xlink" width="240" zoomAndPan="magnify" viewBox="0 0 180 179.999997" height="240" preserveAspectRatio="xMidYMid meet" version="1.0"><defs><clipPath id="ba17715391"><path d="M 12.828125 12.828125 L 167.328125 12.828125 L 167.328125 167.328125 L 12.828125 167.328125 Z M 12.828125 12.828125 " clip-rule="nonzero"/></clipPath></defs><g clip-path="url(#ba17715391)"><path fill="#7ed957" d="M 90.078125 12.828125 C 47.589844 12.828125 12.828125 47.589844 12.828125 90.078125 C 12.828125 132.566406 47.589844 167.328125 90.078125 167.328125 C 132.566406 167.328125 167.328125 132.566406 167.328125 90.078125 C 167.328125 47.589844 132.566406 12.828125 90.078125 12.828125 Z M 121.417969 124.113281 C 119.964844 124.113281 119.238281 123.386719 117.785156 122.660156 C 106.886719 116.117188 93.082031 112.488281 78.550781 112.488281 C 70.554688 112.488281 61.84375 113.941406 54.574219 115.390625 C 53.121094 115.390625 51.667969 116.117188 50.941406 116.117188 C 48.039062 116.117188 45.859375 113.941406 45.859375 111.035156 C 45.859375 108.128906 47.3125 105.953125 50.214844 105.953125 C 59.664062 103.773438 69.109375 102.320312 79.285156 102.320312 C 95.996094 102.320312 111.257812 106.679688 124.335938 113.945312 C 125.789062 115.398438 127.242188 116.125 127.242188 119.03125 C 125.773438 122.660156 123.597656 124.113281 121.417969 124.113281 Z M 129.40625 103.773438 C 127.953125 103.773438 126.5 103.046875 125.046875 102.320312 C 112.695312 94.324219 95.253906 89.96875 76.363281 89.96875 C 66.917969 89.96875 58.195312 91.421875 51.660156 92.875 C 50.207031 93.597656 49.480469 93.597656 48.03125 93.597656 C 44.398438 93.597656 42.210938 90.695312 42.210938 87.78125 C 42.210938 84.152344 43.664062 82.699219 47.296875 81.238281 C 56.015625 79.0625 64.738281 76.882812 77.089844 76.882812 C 97.4375 76.882812 116.328125 81.964844 132.316406 91.414062 C 134.496094 92.867188 135.949219 95.042969 135.949219 97.230469 C 135.222656 100.859375 133.042969 103.773438 129.40625 103.773438 Z M 138.851562 80.511719 C 137.398438 80.511719 136.675781 79.789062 134.496094 79.0625 C 119.964844 71.066406 98.890625 65.984375 78.542969 65.984375 C 68.371094 65.984375 57.46875 67.433594 48.023438 69.613281 C 46.570312 69.613281 45.84375 70.339844 43.664062 70.339844 C 39.308594 71.074219 36.394531 67.433594 36.394531 63.078125 C 36.394531 58.722656 38.574219 56.535156 41.480469 55.808594 C 53.113281 52.902344 65.464844 51.453125 78.542969 51.453125 C 101.070312 51.453125 124.320312 56.535156 142.492188 65.984375 C 144.667969 67.433594 146.847656 69.613281 146.847656 73.25 C 146.121094 77.609375 143.210938 80.511719 138.851562 80.511719 Z M 138.851562 80.511719 " fill-opacity="1" fill-rule="nonzero"/></g></svg>