<svg xmlns="http://www.w3.org/2000/svg" xmlns:xlink="http://www.w3.org/1999/xlink" width="240" zoomAndPan="magnify" viewBox="0 0 180 179.999997" height="240" preserveAspectRatio="xMidYMid meet" version="1.0"><defs><clipPath id="a6c7b5c613"><path d="M 13.296875 13.296875 L 167.046875 13.296875 L 167.046875 167.046875 L 13.296875 167.046875 Z M 13.296875 13.296875 " clip-rule="nonzero"/></clipPath></defs><g clip-path="url(#a6c7b5c613)"><path fill="#37aee2" d="M 36.359375 13.296875 L 143.984375 13.296875 C 144.738281 13.296875 145.492188 13.332031 146.246094 13.40625 C 146.996094 13.480469 147.742188 13.59375 148.484375 13.738281 C 149.222656 13.886719 149.957031 14.070312 150.679688 14.289062 C 151.402344 14.507812 152.113281 14.761719 152.808594 15.050781 C 153.507812 15.339844 154.1875 15.664062 154.855469 16.019531 C 155.523438 16.375 156.167969 16.761719 156.796875 17.183594 C 157.425781 17.601562 158.03125 18.050781 158.613281 18.53125 C 159.199219 19.011719 159.757812 19.515625 160.292969 20.050781 C 160.824219 20.585938 161.332031 21.144531 161.8125 21.726562 C 162.289062 22.3125 162.738281 22.917969 163.160156 23.546875 C 163.578125 24.175781 163.96875 24.820312 164.324219 25.488281 C 164.679688 26.152344 165 26.835938 165.289062 27.535156 C 165.578125 28.230469 165.835938 28.941406 166.054688 29.664062 C 166.273438 30.386719 166.457031 31.117188 166.601562 31.859375 C 166.75 32.601562 166.863281 33.347656 166.933594 34.097656 C 167.007812 34.851562 167.046875 35.605469 167.046875 36.359375 L 167.046875 143.984375 C 167.046875 144.738281 167.007812 145.492188 166.933594 146.246094 C 166.863281 146.996094 166.75 147.742188 166.601562 148.484375 C 166.457031 149.222656 166.273438 149.957031 166.054688 150.679688 C 165.835938 151.402344 165.578125 152.113281 165.289062 152.808594 C 165 153.507812 164.679688 154.1875 164.324219 154.855469 C 163.96875 155.523438 163.578125 156.167969 163.160156 156.796875 C 162.738281 157.425781 162.289062 158.03125 161.8125 158.613281 C 161.332031 159.199219 160.824219 159.757812 160.292969 160.292969 C 159.757812 160.824219 159.199219 161.332031 158.613281 161.8125 C 158.03125 162.289062 157.425781 162.738281 156.796875 163.160156 C 156.167969 163.578125 155.523438 163.96875 154.855469 164.324219 C 154.1875 164.679688 153.507812 165 152.808594 165.289062 C 152.113281 165.578125 151.402344 165.835938 150.679688 166.054688 C 149.957031 166.273438 149.222656 166.457031 148.484375 166.601562 C 147.742188 166.75 146.996094 166.863281 146.246094 166.933594 C 145.492188 167.007812 144.738281 167.046875 143.984375 167.046875 L 36.359375 167.046875 C 35.605469 167.046875 34.851562 167.007812 34.097656 166.933594 C 33.347656 166.863281 32.601562 166.75 31.859375 166.601562 C 31.117188 166.457031 30.386719 166.273438 29.664062 166.054688 C 28.941406 165.835938 28.230469 165.578125 27.535156 165.289062 C 26.835938 165 26.152344 164.679688 25.488281 164.324219 C 24.820312 163.96875 24.175781 163.578125 23.546875 163.160156 C 22.917969 162.738281 22.3125 162.289062 21.726562 161.8125 C 21.144531 161.332031 20.585938 160.824219 20.050781 160.292969 C 19.515625 159.757812 19.011719 159.199219 18.53125 158.613281 C 18.050781 158.03125 17.601562 157.425781 17.183594 156.796875 C 16.761719 156.167969 16.375 155.523438 16.019531 154.855469 C 15.664062 154.1875 15.339844 153.507812 15.050781 152.808594 C 14.761719 152.113281 14.507812 151.402344 14.289062 150.679688 C 14.070312 149.957031 13.886719 149.222656 13.738281 148.484375 C 13.59375 147.742188 13.480469 146.996094 13.40625 146.246094 C 13.332031 145.492188 13.296875 144.738281 13.296875 143.984375 L 13.296875 36.359375 C 13.296875 35.605469 13.332031 34.851562 13.40625 34.097656 C 13.480469 33.347656 13.59375 32.601562 13.738281 31.859375 C 13.886719 31.117188 14.070312 30.386719 14.289062 29.664062 C 14.507812 28.941406 14.761719 28.230469 15.050781 27.535156 C 15.339844 26.835938 15.664062 26.152344 16.019531 25.488281 C 16.375 24.820312 16.761719 24.175781 17.183594 23.546875 C 17.601562 22.917969 18.050781 22.3125 18.53125 21.726562 C 19.011719 21.144531 19.515625 20.585938 20.050781 20.050781 C 20.585938 19.515625 21.144531 19.011719 21.726562 18.53125 C 22.3125 18.050781 22.917969 17.601562 23.546875 17.183594 C 24.175781 16.761719 24.820312 16.375 25.488281 16.019531 C 26.152344 15.664062 26.835938 15.339844 27.535156 15.050781 C 28.230469 14.761719 28.941406 14.507812 29.664062 14.289062 C 30.386719 14.070312 31.117188 13.886719 31.859375 13.738281 C 32.601562 13.59375 33.347656 13.480469 34.097656 13.40625 C 34.851562 13.332031 35.605469 13.296875 36.359375 13.296875 Z M 36.359375 13.296875 " fill-opacity="1" fill-rule="nonzero"/></g><path fill="#c8daea" d="M 73.054688 134.613281 C 69.75 134.613281 70.050781 133.414062 69.152344 130.410156 L 59.542969 98.878906 L 133.113281 55.636719 " fill-opacity="1" fill-rule="nonzero"/><path fill="#a9c9dd" d="M 73.054688 134.613281 C 75.15625 134.613281 76.359375 133.414062 77.859375 132.210938 L 91.371094 119.300781 L 74.554688 109.089844 " fill-opacity="1" fill-rule="nonzero"/><path fill="#f6fbfe" d="M 74.554688 109.089844 L 115.097656 138.820312 C 119.300781 141.523438 122.902344 140.019531 124.105469 134.613281 L 140.621094 57.140625 C 142.121094 50.53125 137.917969 47.53125 133.414062 49.632812 L 37.019531 86.867188 C 30.714844 89.269531 30.714844 93.175781 35.820312 94.675781 L 60.742188 102.484375 L 117.796875 66.148438 C 120.5 64.648438 122.902344 65.246094 121.101562 67.347656 " fill-opacity="1" fill-rule="nonzero"/></svg>