<svg xmlns="http://www.w3.org/2000/svg" xmlns:xlink="http://www.w3.org/1999/xlink" width="240" zoomAndPan="magnify" viewBox="0 0 180 179.999997" height="240" preserveAspectRatio="xMidYMid meet" version="1.0"><defs><clipPath id="3b99c3de36"><path d="M 12.828125 9 L 167.328125 9 L 167.328125 171 L 12.828125 171 Z M 12.828125 9 " clip-rule="nonzero"/></clipPath></defs><g clip-path="url(#3b99c3de36)"><path fill="#6441a4" d="M 23.703125 9.167969 L 12.828125 36.917969 L 12.828125 150.320312 L 51.476562 150.320312 L 51.476562 170.832031 L 73.214844 170.832031 L 93.75 150.320312 L 125.148438 150.320312 L 167.417969 108.097656 L 167.417969 9.167969 Z M 152.925781 100.863281 L 128.765625 124.984375 L 90.121094 124.984375 L 69.589844 145.496094 L 69.589844 124.984375 L 36.984375 124.984375 L 36.984375 23.644531 L 152.921875 23.644531 L 152.921875 100.863281 Z M 128.765625 51.394531 L 128.765625 93.617188 L 114.277344 93.617188 L 114.277344 51.394531 Z M 90.121094 51.394531 L 90.121094 93.617188 L 75.628906 93.617188 L 75.628906 51.394531 Z M 90.121094 51.394531 " fill-opacity="1" fill-rule="evenodd"/></g></svg>